# xmcd CD database file
#
# Track frame offsets:
#	150
#	16308
#	31158
#	44729
#	57900
#	70268
#	80360
#	95649
#	111617
#	124435
#	140020
#
# Disc length: 2020 seconds
#
# Revision: 0
# Processed by: cddbd v1.5.1PL0 Copyright (c) Steve Scherf et al.
# Submitted via: CDex 1.51
#
DISCID=a307e20b
DTITLE=Nick Hernandez - Heartbroke Rodeo
DYEAR=1900
DGENRE=Country
TTITLE0=Lucky Stars Above
TTITLE1=Heartbroke Rodeo
TTITLE2=Knock Three Times
TTITLE3=Countryboy at Heart
TTITLE4=Love Slow Dance
TTITLE5=Goodbye to You
TTITLE6=This Thing We Have is Love
TTITLE7=Don't Belong
TTITLE8=Little Countryplace
TTITLE9=Too Young to Care
TTITLE10=Still Miss You Even More
EXTD=
EXTT0=
EXTT1=
EXTT2=
EXTT3=
EXTT4=
EXTT5=
EXTT6=
EXTT7=
EXTT8=
EXTT9=
EXTT10=
PLAYORDER=
